# Blender 3.3.1
# www.blender.org
mtllib Tower.mtl
o Cylinder
v 0.000000 0.000000 -1.000000
v 0.000000 0.500000 -1.000000
v 0.500000 0.000000 -0.866025
v 0.500000 0.500000 -0.866025
v 0.866025 0.000000 -0.500000
v 0.866025 0.500000 -0.500000
v 1.000000 0.000000 0.000000
v 1.000000 0.500000 0.000000
v 0.866025 0.000000 0.500000
v 0.866025 0.500000 0.500000
v 0.500000 0.000000 0.866025
v 0.500000 0.500000 0.866025
v 0.000000 0.000000 1.000000
v 0.000000 0.500000 1.000000
v -0.500000 0.000000 0.866025
v -0.500000 0.500000 0.866025
v -0.866025 0.000000 0.500000
v -0.866025 0.500000 0.500000
v -1.000000 0.000000 0.000000
v -1.000000 0.500000 0.000000
v -0.866025 0.000000 -0.500000
v -0.866025 0.500000 -0.500000
v -0.500000 0.000000 -0.866025
v -0.500000 0.500000 -0.866025
v 0.392580 0.802861 -0.679969
v 0.000000 0.802861 -0.785161
v 0.679969 0.802861 -0.392580
v 0.785161 0.802861 0.000000
v 0.679969 0.802861 0.392580
v 0.392580 0.802861 0.679969
v 0.000000 0.802861 0.785161
v -0.392580 0.802861 0.679969
v -0.679969 0.802861 0.392580
v -0.785161 0.802861 0.000000
v -0.679969 0.802861 -0.392580
v -0.392580 0.802861 -0.679969
v 0.348155 1.893159 -0.603022
v 0.000000 1.893159 -0.696310
v 0.603022 1.893159 -0.348155
v 0.696310 1.893159 0.000000
v 0.603022 1.893159 0.348155
v 0.348155 1.893159 0.603022
v 0.000000 1.893159 0.696310
v -0.348155 1.893159 0.603022
v -0.603022 1.893159 0.348155
v -0.696310 1.893159 0.000000
v -0.603022 1.893159 -0.348155
v -0.348155 1.893159 -0.603022
v 0.501463 2.196020 -0.868559
v 0.000000 2.196020 -1.002926
v 0.868559 2.196020 -0.501463
v 1.002926 2.196020 0.000000
v 0.868559 2.196020 0.501463
v 0.501463 2.196020 0.868559
v 0.000000 2.196020 1.002926
v -0.501463 2.196020 0.868559
v -0.868559 2.196020 0.501463
v -1.002926 2.196020 0.000000
v -0.868559 2.196020 -0.501463
v -0.501463 2.196020 -0.868559
v 0.501463 2.983458 -0.868559
v 0.000000 2.983458 -1.002926
v 0.868559 2.983458 -0.501463
v 1.002926 2.983458 0.000000
v 0.868559 2.983458 0.501463
v 0.501463 2.983458 0.868559
v 0.000000 2.983458 1.002926
v -0.501463 2.983458 0.868559
v -0.868559 2.983458 0.501463
v -1.002926 2.983458 0.000000
v -0.868559 2.983458 -0.501463
v -0.501463 2.983458 -0.868559
v 0.381006 2.983458 -0.659922
v -0.000000 2.983458 -0.762012
v 0.659922 2.983458 -0.381006
v 0.762012 2.983458 0.000000
v 0.659922 2.983458 0.381006
v 0.381006 2.983458 0.659922
v -0.000000 2.983458 0.762012
v -0.381006 2.983458 0.659922
v -0.659922 2.983458 0.381006
v -0.762012 2.983458 0.000000
v -0.659922 2.983458 -0.381006
v -0.381006 2.983458 -0.659922
v 0.381006 2.125836 -0.659922
v -0.000000 2.125836 -0.762012
v 0.659922 2.125836 -0.381006
v 0.762012 2.125836 0.000000
v 0.659922 2.125836 0.381006
v 0.381006 2.125836 0.659922
v -0.000000 2.125836 0.762012
v -0.381006 2.125836 0.659922
v -0.659922 2.125836 0.381006
v -0.762012 2.125836 0.000000
v -0.659922 2.125836 -0.381006
v -0.381006 2.125836 -0.659922
v 1.002926 2.603187 0.000000
v 0.868559 2.603187 0.501463
v -0.868559 2.603187 -0.501463
v -0.501463 2.603187 -0.868559
v 0.000000 2.603187 -1.002926
v 0.501463 2.603187 -0.868559
v -0.501463 2.603187 0.868559
v -0.868559 2.603187 0.501463
v 0.501463 2.603187 0.868559
v 0.868559 2.603187 -0.501463
v -1.002926 2.603187 0.000000
v 0.000000 2.603187 1.002926
v -0.000000 2.554647 0.762012
v -0.381006 2.554647 0.659922
v 0.762012 2.554647 0.000000
v 0.659922 2.554647 0.381006
v -0.659922 2.554647 -0.381006
v -0.381006 2.554647 -0.659922
v -0.000000 2.554647 -0.762012
v 0.381006 2.554647 -0.659922
v -0.659922 2.554647 0.381006
v 0.381006 2.554647 0.659922
v 0.659922 2.554647 -0.381006
v -0.762012 2.554647 0.000000
v 0.000000 1.166294 -0.755544
v 0.000000 1.529727 -0.725927
v 0.362963 1.529726 -0.628671
v 0.377772 1.166294 -0.654320
v -0.377772 1.166294 0.654320
v -0.362963 1.529727 0.628671
v -0.628671 1.529726 0.362963
v -0.654320 1.166294 0.377772
v 0.654320 1.166294 0.377772
v 0.628671 1.529727 0.362963
v 0.362963 1.529726 0.628671
v 0.377772 1.166294 0.654320
v -0.377772 1.166294 -0.654320
v -0.362963 1.529727 -0.628671
v 0.628671 1.529726 -0.362963
v 0.654320 1.166294 -0.377772
v -0.725927 1.529726 0.000000
v -0.755544 1.166294 0.000000
v 0.000000 1.529726 0.725927
v 0.000000 1.166294 0.755544
v 0.725927 1.529726 0.000000
v 0.755544 1.166294 0.000000
v -0.628671 1.529726 -0.362963
v -0.654320 1.166294 -0.377772
vn 0.2588 -0.0000 -0.9659
vn 0.7071 -0.0000 -0.7071
vn 0.9659 -0.0000 -0.2588
vn 0.9659 -0.0000 0.2588
vn 0.7071 -0.0000 0.7071
vn 0.2588 -0.0000 0.9659
vn -0.2588 -0.0000 0.9659
vn -0.7071 -0.0000 0.7071
vn -0.9659 -0.0000 0.2588
vn -0.9659 -0.0000 -0.2588
vn -0.7968 0.5652 0.2135
vn -0.7071 -0.0000 -0.7071
vn -0.2588 -0.0000 -0.9659
vn -0.0000 -1.0000 -0.0000
vn 0.2580 0.0785 -0.9629
vn -0.5833 0.5652 0.5833
vn -0.2135 0.5652 0.7968
vn 0.2135 0.5652 0.7968
vn 0.5833 0.5652 0.5833
vn 0.7968 0.5652 0.2135
vn -0.2135 0.5652 -0.7968
vn 0.2135 0.5652 -0.7968
vn 0.7968 0.5652 -0.2135
vn -0.5833 0.5652 -0.5833
vn 0.5833 0.5652 -0.5833
vn -0.7968 0.5652 -0.2135
vn -0.5056 -0.6992 -0.5056
vn -0.7049 0.0785 0.7049
vn 0.7049 0.0785 0.7049
vn -0.2580 0.0785 -0.9629
vn 0.7049 0.0785 -0.7049
vn -0.9629 0.0785 0.2580
vn 0.2580 0.0785 0.9629
vn 0.9629 0.0785 -0.2580
vn -0.9629 0.0785 -0.2580
vn -0.2580 0.0785 0.9629
vn 0.9629 0.0785 0.2580
vn -0.7049 0.0785 -0.7049
vn -0.1972 0.9789 -0.0528
vn 0.1850 -0.6992 -0.6906
vn -0.5056 -0.6992 0.5056
vn 0.5056 -0.6992 0.5056
vn -0.1850 -0.6992 -0.6906
vn 0.5056 -0.6992 -0.5056
vn -0.6906 -0.6992 0.1850
vn 0.1850 -0.6992 0.6906
vn 0.6906 -0.6992 -0.1850
vn -0.6906 -0.6992 -0.1850
vn -0.1850 -0.6992 0.6906
vn 0.6906 -0.6992 0.1850
vn -0.8660 -0.0000 -0.5000
vn 0.5000 -0.0000 0.8660
vn -0.0000 -0.0000 1.0000
vn 0.5000 -0.0000 -0.8660
vn -0.1444 0.9789 0.1444
vn -0.0000 1.0000 -0.0000
vn 0.1444 0.9789 -0.1444
vn -0.0000 -0.0000 -1.0000
vn -0.5000 -0.0000 0.8660
vn 0.1972 0.9789 0.0528
vn 0.8660 -0.0000 -0.5000
vn -0.0529 0.9789 -0.1972
vn -1.0000 -0.0000 -0.0000
vn 0.0528 0.9789 0.1972
vn 0.8660 -0.0000 0.5000
vn -0.5000 -0.0000 -0.8660
vn 1.0000 -0.0000 -0.0000
vn -0.8660 -0.0000 0.5000
vn -0.0528 0.9789 -0.1972
vt 1.000000 0.500000
vt 0.000000 0.500000
vt 0.750000 0.490000
vt 0.000000 1.000000
vt 1.000000 1.000000
vt 0.916667 0.500000
vt 0.870000 0.457846
vt 0.916667 1.000000
vt 0.833333 0.500000
vt 0.957846 0.370000
vt 0.833333 1.000000
vt 0.750000 0.500000
vt 0.990000 0.250000
vt 0.750000 1.000000
vt 0.666667 0.500000
vt 0.957846 0.130000
vt 0.666667 1.000000
vt 0.583333 0.500000
vt 0.870000 0.042154
vt 0.583333 1.000000
vt 0.500000 0.500000
vt 0.750000 0.010000
vt 0.500000 1.000000
vt 0.416667 0.500000
vt 0.630000 0.042154
vt 0.416667 1.000000
vt 0.333333 0.500000
vt 0.542154 0.130000
vt 0.333333 1.000000
vt 0.250000 0.500000
vt 0.510000 0.250000
vt 0.250000 1.000000
vt 0.166667 0.500000
vt 0.542154 0.370000
vt 0.166667 1.000000
vt 0.083333 0.500000
vt 0.630000 0.457846
vt 0.083333 1.000000
vt 0.916667 1.000000
vt 0.000000 1.000000
vt 1.000000 1.000000
vt 0.833333 1.000000
vt 0.750000 1.000000
vt 0.666667 1.000000
vt 0.583333 1.000000
vt 0.500000 1.000000
vt 0.416667 1.000000
vt 0.333333 1.000000
vt 0.250000 1.000000
vt 0.166667 1.000000
vt 0.083333 1.000000
vt 0.916667 1.000000
vt 0.000000 1.000000
vt 1.000000 1.000000
vt 0.833333 1.000000
vt 0.750000 1.000000
vt 0.666667 1.000000
vt 0.583333 1.000000
vt 0.500000 1.000000
vt 0.416667 1.000000
vt 0.333333 1.000000
vt 0.250000 1.000000
vt 0.166667 1.000000
vt 0.083333 1.000000
vt 0.916667 1.000000
vt 0.000000 1.000000
vt 1.000000 1.000000
vt 0.833333 1.000000
vt 0.750000 1.000000
vt 0.666667 1.000000
vt 0.583333 1.000000
vt 0.500000 1.000000
vt 0.416667 1.000000
vt 0.333333 1.000000
vt 0.250000 1.000000
vt 0.166667 1.000000
vt 0.083333 1.000000
vt 0.916667 1.000000
vt 1.000000 1.000000
vt 0.833333 1.000000
vt 0.750000 1.000000
vt 0.666667 1.000000
vt 0.583333 1.000000
vt 0.500000 1.000000
vt 0.416667 1.000000
vt 0.333333 1.000000
vt 0.250000 1.000000
vt 0.166667 1.000000
vt 0.083333 1.000000
vt 0.916667 1.000000
vt 1.000000 1.000000
vt 0.833333 1.000000
vt 0.750000 1.000000
vt 0.666667 1.000000
vt 0.583333 1.000000
vt 0.500000 1.000000
vt 0.416667 1.000000
vt 0.333333 1.000000
vt 0.250000 1.000000
vt 0.166667 1.000000
vt 0.083333 1.000000
vt 0.370000 0.457846
vt 0.916667 1.000000
vt 0.250000 0.490000
vt 1.000000 1.000000
vt 0.000000 1.000000
vt 0.457846 0.370000
vt 0.833333 1.000000
vt 0.490000 0.250000
vt 0.750000 1.000000
vt 0.457846 0.130000
vt 0.666667 1.000000
vt 0.370000 0.042154
vt 0.583333 1.000000
vt 0.250000 0.010000
vt 0.500000 1.000000
vt 0.130000 0.042154
vt 0.416667 1.000000
vt 0.042154 0.130000
vt 0.333333 1.000000
vt 0.010000 0.250000
vt 0.250000 1.000000
vt 0.042154 0.370000
vt 0.166667 1.000000
vt 0.130000 0.457846
vt 0.083333 1.000000
vt 0.750000 1.000000
vt 0.666667 1.000000
vt 0.166667 1.000000
vt 0.083333 1.000000
vt 1.000000 1.000000
vt 0.000000 1.000000
vt 0.916667 1.000000
vt 0.416667 1.000000
vt 0.333333 1.000000
vt 0.583333 1.000000
vt 0.833333 1.000000
vt 0.250000 1.000000
vt 0.500000 1.000000
vt 0.500000 1.000000
vt 0.416667 1.000000
vt 0.750000 1.000000
vt 0.666667 1.000000
vt 0.166667 1.000000
vt 0.083333 1.000000
vt 0.000000 1.000000
vt 1.000000 1.000000
vt 0.916667 1.000000
vt 0.333333 1.000000
vt 0.583333 1.000000
vt 0.833333 1.000000
vt 0.250000 1.000000
vt 0.000000 1.000000
vt 1.000000 1.000000
vt 0.000000 1.000000
vt 1.000000 1.000000
vt 0.916667 1.000000
vt 0.916667 1.000000
vt 0.416667 1.000000
vt 0.416667 1.000000
vt 0.333333 1.000000
vt 0.333333 1.000000
vt 0.666667 1.000000
vt 0.666667 1.000000
vt 0.583333 1.000000
vt 0.583333 1.000000
vt 0.083333 1.000000
vt 0.083333 1.000000
vt 0.833333 1.000000
vt 0.833333 1.000000
vt 0.250000 1.000000
vt 0.250000 1.000000
vt 0.500000 1.000000
vt 0.500000 1.000000
vt 0.750000 1.000000
vt 0.750000 1.000000
vt 0.166667 1.000000
vt 0.166667 1.000000
s 0
usemtl Tower
f 2/5/1 3/6/1 1/1/1
f 4/8/2 5/9/2 3/6/2
f 6/11/3 7/12/3 5/9/3
f 8/14/4 9/15/4 7/12/4
f 10/17/5 11/18/5 9/15/5
f 12/20/6 13/21/6 11/18/6
f 14/23/7 15/24/7 13/21/7
f 16/26/8 17/27/8 15/24/8
f 18/29/9 19/30/9 17/27/9
f 20/32/10 21/33/10 19/30/10
f 18/29/11 34/49/11 20/32/11
f 22/35/12 23/36/12 21/33/12
f 24/38/13 1/2/13 23/36/13
f 7/13/14 15/25/14 23/37/14
f 122/156/15 37/52/15 123/157/15
f 16/26/16 33/48/16 18/29/16
f 14/23/17 32/47/17 16/26/17
f 12/20/18 31/46/18 14/23/18
f 10/17/19 30/45/19 12/20/19
f 8/14/20 29/44/20 10/17/20
f 24/38/21 26/40/21 2/4/21
f 2/5/22 25/39/22 4/8/22
f 6/11/23 28/43/23 8/14/23
f 22/35/24 36/51/24 24/38/24
f 4/8/25 27/42/25 6/11/25
f 20/32/26 35/50/26 22/35/26
f 47/63/27 60/77/27 48/64/27
f 126/160/28 45/61/28 127/161/28
f 130/164/29 42/58/29 131/165/29
f 134/168/30 38/53/30 122/155/30
f 123/157/31 39/55/31 135/169/31
f 127/161/32 46/62/32 137/171/32
f 131/165/33 43/59/33 139/173/33
f 135/169/34 40/56/34 141/175/34
f 137/171/35 47/63/35 143/177/35
f 139/173/36 44/60/36 126/160/36
f 141/175/37 41/57/37 130/164/37
f 134/168/38 47/63/38 48/64/38
f 98/128/39 111/142/39 112/143/39
f 38/54/40 49/65/40 37/52/40
f 44/60/41 57/74/41 45/61/41
f 41/57/42 54/71/42 42/58/42
f 48/64/43 50/66/43 38/53/43
f 37/52/44 51/68/44 39/55/44
f 45/61/45 58/75/45 46/62/45
f 42/58/46 55/72/46 43/59/46
f 39/55/47 52/69/47 40/56/47
f 46/62/48 59/76/48 47/63/48
f 43/59/49 56/73/49 44/60/49
f 40/56/50 53/70/50 41/57/50
f 80/97/51 103/134/51 68/85/51
f 99/129/12 72/89/12 100/130/12
f 101/131/1 61/78/1 102/133/1
f 104/135/52 81/98/52 69/86/52
f 98/128/5 66/83/5 105/136/5
f 97/127/53 76/93/53 111/142/53
f 98/128/54 77/94/54 65/82/54
f 104/135/9 70/87/9 107/138/9
f 106/137/3 64/81/3 97/127/3
f 106/137/55 116/148/55 119/151/55
f 108/139/7 68/85/7 103/134/7
f 109/140/1 92/118/1 110/141/1
f 71/88/56 84/101/56 72/89/56
f 62/79/56 73/90/56 61/78/56
f 104/135/57 110/141/57 117/149/57
f 65/82/56 78/95/56 66/83/56
f 107/138/58 82/99/58 120/152/58
f 99/129/59 83/100/59 71/88/59
f 69/86/56 82/99/56 70/87/56
f 63/80/56 76/93/56 64/81/56
f 99/129/60 120/152/60 113/144/60
f 67/84/56 80/97/56 68/85/56
f 95/123/56 91/115/56 87/107/56
f 111/142/10 89/112/10 112/143/10
f 113/144/5 96/126/5 114/145/5
f 115/147/7 85/103/7 116/148/7
f 110/141/2 93/120/2 117/149/2
f 112/143/12 90/114/12 118/150/12
f 114/145/6 86/106/6 115/146/6
f 116/148/8 87/108/8 119/151/8
f 117/149/3 94/122/3 120/152/3
f 118/150/13 91/116/13 109/140/13
f 119/151/9 88/110/9 111/142/9
f 120/152/4 95/124/4 113/144/4
f 55/72/7 103/134/7 56/73/7
f 58/75/10 99/129/10 59/76/10
f 51/68/3 97/127/3 52/69/3
f 54/71/6 108/139/6 55/72/6
f 57/74/9 107/138/9 58/75/9
f 49/65/2 106/137/2 51/68/2
f 60/77/13 101/132/13 50/66/13
f 53/70/5 105/136/5 54/71/5
f 56/73/8 104/135/8 57/74/8
f 50/67/1 102/133/1 49/65/1
f 59/76/12 100/130/12 60/77/12
f 52/69/4 98/128/4 53/70/4
f 100/130/61 84/101/61 114/145/61
f 75/92/9 111/142/9 76/93/9
f 109/140/62 105/136/62 118/150/62
f 81/98/3 120/152/3 82/99/3
f 101/132/63 74/91/63 62/79/63
f 101/132/64 114/145/64 115/146/64
f 77/94/12 118/150/12 78/95/12
f 102/133/65 73/90/65 116/148/65
f 74/91/7 116/148/7 73/90/7
f 83/100/5 114/145/5 84/101/5
f 106/137/66 75/92/66 63/80/66
f 79/96/1 110/141/1 80/97/1
f 79/96/67 108/139/67 109/140/67
f 105/136/68 78/95/68 118/150/68
f 35/50/38 133/167/38 36/51/38
f 29/44/37 142/176/37 129/163/37
f 32/47/36 140/174/36 125/159/36
f 35/50/35 138/172/35 144/178/35
f 28/43/34 136/170/34 142/176/34
f 31/46/33 132/166/33 140/174/33
f 34/49/32 128/162/32 138/172/32
f 25/39/31 136/170/31 27/42/31
f 26/40/30 133/167/30 121/153/30
f 30/45/29 129/163/29 132/166/29
f 33/48/28 125/159/28 128/162/28
f 26/41/15 124/158/15 25/39/15
f 2/5/1 4/8/1 3/6/1
f 4/8/2 6/11/2 5/9/2
f 6/11/3 8/14/3 7/12/3
f 8/14/4 10/17/4 9/15/4
f 10/17/5 12/20/5 11/18/5
f 12/20/6 14/23/6 13/21/6
f 14/23/7 16/26/7 15/24/7
f 16/26/8 18/29/8 17/27/8
f 18/29/9 20/32/9 19/30/9
f 20/32/10 22/35/10 21/33/10
f 18/29/11 33/48/11 34/49/11
f 22/35/12 24/38/12 23/36/12
f 24/38/13 2/4/13 1/2/13
f 23/37/14 1/3/14 3/7/14
f 3/7/14 5/10/14 7/13/14
f 7/13/14 9/16/14 11/19/14
f 11/19/14 13/22/14 15/25/14
f 15/25/14 17/28/14 19/31/14
f 19/31/14 21/34/14 23/37/14
f 23/37/14 3/7/14 7/13/14
f 7/13/14 11/19/14 15/25/14
f 15/25/14 19/31/14 23/37/14
f 122/156/15 38/54/15 37/52/15
f 16/26/16 32/47/16 33/48/16
f 14/23/17 31/46/17 32/47/17
f 12/20/18 30/45/18 31/46/18
f 10/17/19 29/44/19 30/45/19
f 8/14/20 28/43/20 29/44/20
f 24/38/21 36/51/21 26/40/21
f 2/5/22 26/41/22 25/39/22
f 6/11/23 27/42/23 28/43/23
f 22/35/24 35/50/24 36/51/24
f 4/8/25 25/39/25 27/42/25
f 20/32/26 34/49/26 35/50/26
f 47/63/27 59/76/27 60/77/27
f 126/160/28 44/60/28 45/61/28
f 130/164/29 41/57/29 42/58/29
f 134/168/30 48/64/30 38/53/30
f 123/157/31 37/52/31 39/55/31
f 127/161/32 45/61/32 46/62/32
f 131/165/33 42/58/33 43/59/33
f 135/169/34 39/55/34 40/56/34
f 137/171/35 46/62/35 47/63/35
f 139/173/36 43/59/36 44/60/36
f 141/175/37 40/56/37 41/57/37
f 134/168/38 143/177/38 47/63/38
f 98/128/39 97/127/39 111/142/39
f 38/54/40 50/67/40 49/65/40
f 44/60/41 56/73/41 57/74/41
f 41/57/42 53/70/42 54/71/42
f 48/64/43 60/77/43 50/66/43
f 37/52/44 49/65/44 51/68/44
f 45/61/45 57/74/45 58/75/45
f 42/58/46 54/71/46 55/72/46
f 39/55/47 51/68/47 52/69/47
f 46/62/48 58/75/48 59/76/48
f 43/59/49 55/72/49 56/73/49
f 40/56/50 52/69/50 53/70/50
f 80/97/51 110/141/51 103/134/51
f 99/129/12 71/88/12 72/89/12
f 101/131/1 62/79/1 61/78/1
f 104/135/52 117/149/52 81/98/52
f 98/128/5 65/82/5 66/83/5
f 97/127/53 64/81/53 76/93/53
f 98/128/54 112/143/54 77/94/54
f 104/135/9 69/86/9 70/87/9
f 106/137/3 63/80/3 64/81/3
f 106/137/55 102/133/55 116/148/55
f 108/139/7 67/84/7 68/85/7
f 109/140/1 91/116/1 92/118/1
f 71/88/56 83/100/56 84/101/56
f 62/79/56 74/91/56 73/90/56
f 104/135/57 103/134/57 110/141/57
f 65/82/56 77/94/56 78/95/56
f 107/138/58 70/87/58 82/99/58
f 99/129/59 113/144/59 83/100/59
f 69/86/56 81/98/56 82/99/56
f 63/80/56 75/92/56 76/93/56
f 99/129/60 107/138/60 120/152/60
f 67/84/56 79/96/56 80/97/56
f 87/107/56 85/102/56 86/104/56
f 86/104/56 96/125/56 95/123/56
f 95/123/56 94/121/56 93/119/56
f 93/119/56 92/117/56 91/115/56
f 91/115/56 90/113/56 89/111/56
f 89/111/56 88/109/56 87/107/56
f 87/107/56 86/104/56 95/123/56
f 95/123/56 93/119/56 91/115/56
f 91/115/56 89/111/56 87/107/56
f 111/142/10 88/110/10 89/112/10
f 113/144/5 95/124/5 96/126/5
f 115/147/7 86/105/7 85/103/7
f 110/141/2 92/118/2 93/120/2
f 112/143/12 89/112/12 90/114/12
f 114/145/6 96/126/6 86/106/6
f 116/148/8 85/103/8 87/108/8
f 117/149/3 93/120/3 94/122/3
f 118/150/13 90/114/13 91/116/13
f 119/151/9 87/108/9 88/110/9
f 120/152/4 94/122/4 95/124/4
f 55/72/7 108/139/7 103/134/7
f 58/75/10 107/138/10 99/129/10
f 51/68/3 106/137/3 97/127/3
f 54/71/6 105/136/6 108/139/6
f 57/74/9 104/135/9 107/138/9
f 49/65/2 102/133/2 106/137/2
f 60/77/13 100/130/13 101/132/13
f 53/70/5 98/128/5 105/136/5
f 56/73/8 103/134/8 104/135/8
f 50/67/1 101/131/1 102/133/1
f 59/76/12 99/129/12 100/130/12
f 52/69/4 97/127/4 98/128/4
f 100/130/61 72/89/61 84/101/61
f 75/92/9 119/151/9 111/142/9
f 109/140/69 108/139/69 105/136/69
f 81/98/3 117/149/3 120/152/3
f 101/132/63 115/146/63 74/91/63
f 101/132/64 100/130/64 114/145/64
f 77/94/12 112/143/12 118/150/12
f 102/133/65 61/78/65 73/90/65
f 74/91/7 115/147/7 116/148/7
f 83/100/5 113/144/5 114/145/5
f 106/137/66 119/151/66 75/92/66
f 79/96/1 109/140/1 110/141/1
f 79/96/67 67/84/67 108/139/67
f 105/136/68 66/83/68 78/95/68
f 35/50/38 144/178/38 133/167/38
f 29/44/37 28/43/37 142/176/37
f 32/47/36 31/46/36 140/174/36
f 35/50/35 34/49/35 138/172/35
f 28/43/34 27/42/34 136/170/34
f 31/46/33 30/45/33 132/166/33
f 34/49/32 33/48/32 128/162/32
f 25/39/31 124/158/31 136/170/31
f 26/40/30 36/51/30 133/167/30
f 30/45/29 29/44/29 129/163/29
f 33/48/28 32/47/28 125/159/28
f 26/41/15 121/154/15 124/158/15
usemtl Bar
f 133/167/38 143/177/38 134/168/38
f 129/163/37 141/175/37 130/164/37
f 125/159/36 139/173/36 126/160/36
f 138/172/35 143/177/35 144/178/35
f 136/170/34 141/175/34 142/176/34
f 132/166/33 139/173/33 140/174/33
f 128/162/32 137/171/32 138/172/32
f 124/158/31 135/169/31 136/170/31
f 133/167/30 122/155/30 121/153/30
f 129/163/29 131/165/29 132/166/29
f 125/159/28 127/161/28 128/162/28
f 121/154/15 123/157/15 124/158/15
f 133/167/38 144/178/38 143/177/38
f 129/163/37 142/176/37 141/175/37
f 125/159/36 140/174/36 139/173/36
f 138/172/35 137/171/35 143/177/35
f 136/170/34 135/169/34 141/175/34
f 132/166/33 131/165/33 139/173/33
f 128/162/32 127/161/32 137/171/32
f 124/158/31 123/157/31 135/169/31
f 133/167/30 134/168/30 122/155/30
f 129/163/29 130/164/29 131/165/29
f 125/159/28 126/160/28 127/161/28
f 121/154/15 122/156/15 123/157/15
