# Blender 3.4.1
# www.blender.org
o Tower
v -0.172326 0.087733 0.000000
v -0.121853 0.087733 0.121853
v 0.000000 0.087733 0.172326
v 0.121853 0.087733 0.121853
v 0.172326 0.087733 0.000000
v 0.200000 0.000000 0.000000
v 0.200000 0.075465 0.000000
v 0.141421 0.000000 0.141421
v 0.141421 0.075465 0.141421
v 0.000000 -0.000000 0.200000
v 0.000000 0.075465 0.200000
v -0.141421 0.000000 0.141421
v -0.141421 0.075465 0.141421
v -0.200000 0.000000 0.000000
v -0.200000 0.075465 0.000000
v -0.172326 0.186614 0.000000
v -0.121853 0.186614 0.121853
v 0.000000 0.186614 0.172326
v 0.121853 0.186614 0.121853
v 0.172326 0.186614 0.000000
v -0.128787 0.244084 0.000000
v -0.091066 0.244084 0.091066
v 0.000000 0.244084 0.128787
v 0.091066 0.244084 0.091066
v 0.128787 0.244084 0.000000
v -0.029283 0.512276 0.000000
v 0.002067 0.534813 0.067814
v 0.093949 0.534813 0.065849
v 0.175124 0.530431 0.046562
v 0.196650 0.530431 0.000000
v -0.028438 0.728350 0.000000
v 0.002912 0.728350 0.031869
v 0.078598 0.728350 0.045069
v -0.024480 0.537436 0.039384
v -0.062251 0.514899 0.000000
v 0.153882 0.636304 0.031869
v 0.078598 0.728350 0.045069
v 0.143943 0.682327 0.033637
v 0.116387 0.716018 0.038469
v 0.185232 0.636304 0.000000
v 0.082279 0.728350 0.000000
v 0.171586 0.682327 0.000000
v 0.133903 0.716018 0.000000
v -0.061233 0.730974 0.000000
v -0.023462 0.730974 0.034207
v -0.204880 0.477897 0.000000
v -0.203862 0.596491 0.000000
v -0.166091 0.596491 0.034207
v -0.167110 0.500434 0.039383
v -0.033301 0.779464 0.031122
v -0.019353 0.779464 0.045302
v 0.015960 0.779464 0.031122
v 0.014322 0.779464 0.051175
v -0.156211 0.277186 0.000000
v -0.157299 0.324017 0.000000
v -0.108189 0.273313 0.075275
v -0.109259 0.325340 0.062105
v 0.000000 0.276798 0.103793
v 0.010416 0.325161 0.084491
v 0.108189 0.273313 0.075275
v 0.129121 0.325218 0.059709
v 0.176845 0.325387 0.000000
v 0.156211 0.277186 0.000000
v -0.121853 0.087733 -0.121853
v 0.000000 0.087733 -0.172326
v 0.121853 0.087733 -0.121853
v 0.141421 0.000000 -0.141421
v 0.141421 0.075465 -0.141421
v 0.000000 0.000000 -0.200000
v 0.000000 0.075465 -0.200000
v -0.141421 0.000000 -0.141421
v -0.141421 0.075465 -0.141421
v -0.121853 0.186614 -0.121853
v 0.000000 0.186614 -0.172326
v 0.121853 0.186614 -0.121853
v -0.091066 0.244084 -0.091066
v 0.000000 0.244084 -0.128787
v 0.091066 0.244084 -0.091066
v 0.002067 0.534813 -0.067814
v 0.093949 0.534813 -0.065849
v 0.175124 0.530431 -0.046562
v 0.002912 0.728350 -0.031869
v 0.078598 0.728350 -0.045069
v -0.024480 0.537436 -0.039383
v 0.153882 0.636304 -0.031869
v 0.078598 0.728350 -0.045069
v 0.143943 0.682327 -0.033637
v 0.116387 0.716018 -0.038469
v -0.023462 0.730974 -0.034207
v -0.166091 0.596491 -0.034207
v -0.167110 0.500434 -0.039383
v -0.033301 0.779464 -0.031122
v -0.019353 0.779464 -0.045301
v 0.015960 0.779464 -0.031122
v 0.014322 0.779464 -0.051175
v -0.108189 0.273313 -0.075275
v -0.109259 0.325340 -0.062105
v 0.000000 0.276798 -0.103793
v 0.010416 0.325161 -0.084491
v 0.108189 0.273313 -0.075275
v 0.129121 0.325218 -0.059709
vn 0.1655 0.9016 0.3997
vn 0.9239 -0.0000 0.3827
vn 0.3827 -0.0000 0.9239
vn -0.3827 -0.0000 0.9239
vn -0.9239 -0.0000 0.3827
vn -0.3997 0.9016 0.1655
vn 0.3997 0.9016 0.1655
vn -0.1655 0.9016 0.3997
vn -0.0000 -1.0000 -0.0000
vn -0.7569 0.5734 0.3135
vn 0.7569 0.5734 0.3135
vn -0.3135 0.5734 0.7569
vn 0.3135 0.5734 0.7569
vn 0.8322 -0.1161 0.5421
vn -0.0957 0.0751 0.9926
vn 0.2155 0.0076 0.9765
vn 0.2857 0.4707 0.8348
vn -0.7913 -0.4649 0.3971
vn 0.7913 -0.4649 0.3971
vn -0.2857 0.4707 0.8348
vn 0.2724 0.1277 0.9537
vn -0.0662 0.1423 0.9876
vn -0.3251 -0.7784 0.5370
vn 0.8179 0.1644 0.5514
vn 0.7316 0.1748 0.6589
vn 0.6675 0.6163 0.4180
vn -0.6389 -0.4435 0.6285
vn -0.0216 0.0359 0.9991
vn -0.4323 0.0973 0.8965
vn 0.0845 0.9925 -0.0884
vn -0.7012 0.0238 0.7125
vn -0.5468 0.5800 0.6038
vn 0.2396 -0.9237 0.2988
vn 0.2700 0.9604 0.0685
vn -0.0000 1.0000 -0.0000
vn -0.0000 0.5201 -0.8541
vn -0.1630 -0.3166 0.9345
vn 0.6246 0.7793 0.0510
vn -0.8176 0.0585 0.5728
vn -0.2111 0.3186 0.9241
vn 0.2247 0.2566 0.9400
vn 0.7945 -0.2434 0.5563
vn -0.7892 0.4693 0.3961
vn 0.1655 0.9016 -0.3997
vn 0.9239 -0.0000 -0.3827
vn 0.3827 -0.0000 -0.9239
vn -0.3827 -0.0000 -0.9239
vn -0.9239 -0.0000 -0.3827
vn -0.3997 0.9016 -0.1655
vn 0.3997 0.9016 -0.1655
vn -0.1655 0.9016 -0.3997
vn -0.7569 0.5734 -0.3135
vn 0.7569 0.5734 -0.3135
vn -0.3135 0.5734 -0.7569
vn 0.3135 0.5734 -0.7569
vn 0.8322 -0.1161 -0.5421
vn -0.0957 0.0751 -0.9926
vn 0.2155 0.0076 -0.9765
vn 0.2857 0.4707 -0.8348
vn -0.7913 -0.4649 -0.3971
vn 0.7913 -0.4649 -0.3971
vn -0.2857 0.4707 -0.8348
vn 0.2724 0.1277 -0.9537
vn -0.0662 0.1423 -0.9876
vn -0.3251 -0.7784 -0.5370
vn 0.8179 0.1644 -0.5514
vn 0.7316 0.1748 -0.6589
vn 0.6675 0.6163 -0.4180
vn -0.6389 -0.4435 -0.6285
vn -0.0216 0.0359 -0.9991
vn -0.4323 0.0973 -0.8965
vn 0.0845 0.9925 0.0884
vn -0.7012 0.0238 -0.7125
vn -0.5468 0.5800 -0.6038
vn 0.2396 -0.9237 -0.2988
vn 0.2700 0.9604 -0.0685
vn -0.0000 0.5201 0.8541
vn -0.1630 -0.3166 -0.9345
vn 0.6246 0.7793 -0.0510
vn -0.8176 0.0585 -0.5728
vn -0.2111 0.3186 -0.9241
vn 0.2247 0.2566 -0.9400
vn 0.7945 -0.2434 -0.5563
vn -0.7892 0.4693 -0.3961
vt 0.250000 1.000000
vt 0.375000 1.000000
vt 0.500000 1.000000
vt 0.625000 1.000000
vt 0.750000 1.000000
vt 0.750000 0.500000
vt 0.750000 1.000000
vt 0.625000 0.500000
vt 0.625000 1.000000
vt 0.500000 0.500000
vt 0.500000 1.000000
vt 0.375000 0.500000
vt 0.375000 1.000000
vt 0.250000 0.500000
vt 0.250000 1.000000
vt 0.250000 1.000000
vt 0.375000 1.000000
vt 0.500000 1.000000
vt 0.625000 1.000000
vt 0.750000 1.000000
vt 0.250000 1.000000
vt 0.375000 1.000000
vt 0.500000 1.000000
vt 0.625000 1.000000
vt 0.750000 1.000000
vt 0.250000 1.000000
vt 0.375000 1.000000
vt 0.500000 1.000000
vt 0.625000 1.000000
vt 0.750000 1.000000
vt 0.250000 1.000000
vt 0.000000 0.000000
vt 0.375000 1.000000
vt 0.000000 0.000000
vt 0.500000 1.000000
vt 0.375000 1.000000
vt 0.250000 1.000000
vt 0.625000 1.000000
vt 0.000000 0.000000
vt 0.500000 1.000000
vt 0.610174 1.000000
vt 0.562442 1.000000
vt 0.750000 1.000000
vt 0.000000 0.000000
vt 0.507091 1.000000
vt 0.738580 1.000000
vt 0.611889 1.000000
vt 0.250000 1.000000
vt 0.375000 1.000000
vt 0.250000 1.000000
vt 0.250000 1.000000
vt 0.375000 1.000000
vt 0.375000 1.000000
vt 0.250000 1.000000
vt 0.000000 0.000000
vt 0.375000 1.000000
vt 0.000000 0.000000
vt 0.000000 0.000000
vt 0.507091 1.000000
vt 0.000000 0.000000
vt 0.500000 1.000000
vt 0.250000 1.000000
vt 0.250000 1.000000
vt 0.375000 1.000000
vt 0.375000 1.000000
vt 0.500000 1.000000
vt 0.500000 1.000000
vt 0.625000 1.000000
vt 0.625000 1.000000
vt 0.750000 1.000000
vt 0.750000 1.000000
vt 0.375000 1.000000
vt 0.500000 1.000000
vt 0.625000 1.000000
vt 0.625000 0.500000
vt 0.625000 1.000000
vt 0.500000 0.500000
vt 0.500000 1.000000
vt 0.375000 0.500000
vt 0.375000 1.000000
vt 0.375000 1.000000
vt 0.500000 1.000000
vt 0.625000 1.000000
vt 0.375000 1.000000
vt 0.500000 1.000000
vt 0.625000 1.000000
vt 0.375000 1.000000
vt 0.500000 1.000000
vt 0.625000 1.000000
vt 0.375000 1.000000
vt 0.000000 0.000000
vt 0.500000 1.000000
vt 0.375000 1.000000
vt 0.625000 1.000000
vt 0.000000 0.000000
vt 0.500000 1.000000
vt 0.610174 1.000000
vt 0.562442 1.000000
vt 0.375000 1.000000
vt 0.375000 1.000000
vt 0.375000 1.000000
vt 0.250000 1.000000
vt 0.000000 0.000000
vt 0.375000 1.000000
vt 0.000000 0.000000
vt 0.000000 0.000000
vt 0.507091 1.000000
vt 0.000000 0.000000
vt 0.500000 1.000000
vt 0.375000 1.000000
vt 0.375000 1.000000
vt 0.500000 1.000000
vt 0.500000 1.000000
vt 0.625000 1.000000
vt 0.625000 1.000000
s 0
f 11/11/1 9/9/1 4/4/1 3/3/1
f 6/6/2 7/7/2 9/9/2 8/8/2
f 8/8/3 9/9/3 11/11/3 10/10/3
f 10/10/4 11/11/4 13/13/4 12/12/4
f 12/12/5 13/13/5 15/15/5 14/14/5
f 15/15/6 13/13/6 2/2/6 1/1/6
f 9/9/7 7/7/7 5/5/7 4/4/7
f 13/13/8 11/11/8 3/3/8 2/2/8
f 6/6/9 8/8/9 10/10/9 12/12/9 14/14/9
f 2/2/4 3/3/4 18/18/4 17/17/4
f 3/3/3 4/4/3 19/19/3 18/18/3
f 1/1/5 2/2/5 17/17/5 16/16/5
f 4/4/2 5/5/2 20/20/2 19/19/2
f 16/16/10 17/17/10 22/22/10 21/21/10
f 19/19/11 20/20/11 25/25/11 24/24/11
f 17/17/12 18/18/12 23/23/12 22/22/12
f 18/18/13 19/19/13 24/24/13 23/23/13
f 61/69/14 62/70/14 30/30/14 29/29/14
f 57/65/15 59/67/15 28/28/15 27/27/15
f 59/67/16 61/69/16 29/29/16 28/28/16
f 23/23/17 24/24/17 60/68/17 58/66/17
f 21/21/18 22/22/18 56/64/18 54/62/18
f 24/24/19 25/25/19 63/71/19 60/68/19
f 22/22/20 23/23/20 58/66/20 56/64/20
f 28/28/21 29/29/21 36/38/21 38/41/21 39/42/21 37/40/21 33/35/21
f 27/27/22 28/28/22 33/35/22 32/33/22
f 26/26/23 27/27/23 34/36/23 35/37/23
f 29/29/24 30/30/24 40/43/24 36/38/24
f 36/38/25 40/43/25 42/46/25 38/41/25
f 38/41/26 42/46/26 43/47/26 39/42/26
f 31/31/27 32/33/27 51/56/27 50/54/27
f 34/36/28 45/49/28 48/52/28 49/53/28
f 27/27/29 32/33/29 45/49/29 34/36/29
f 32/33/30 31/31/30 44/48/30 45/49/30
f 46/50/31 49/53/31 48/52/31 47/51/31
f 45/49/32 44/48/32 47/51/32 48/52/32
f 35/37/33 34/36/33 49/53/33 46/50/33
f 39/42/34 43/47/34 41/45/34 37/40/34
f 51/56/35 53/61/35 52/59/35 50/54/35
f 41/44/36 31/32/36 50/55/36 52/58/36
f 32/34/37 37/39/37 53/60/37 51/57/37
f 37/40/38 41/45/38 52/59/38 53/61/38
f 54/62/39 56/64/39 57/65/39 55/63/39
f 56/64/40 58/66/40 59/67/40 57/65/40
f 58/66/41 60/68/41 61/69/41 59/67/41
f 60/68/42 63/71/42 62/70/42 61/69/42
f 55/63/43 57/65/43 27/27/43 26/26/43
f 70/78/44 65/73/44 66/74/44 68/76/44
f 6/6/45 67/75/45 68/76/45 7/7/45
f 67/75/46 69/77/46 70/78/46 68/76/46
f 69/77/47 71/79/47 72/80/47 70/78/47
f 71/79/48 14/14/48 15/15/48 72/80/48
f 15/15/49 1/1/49 64/72/49 72/80/49
f 68/76/50 66/74/50 5/5/50 7/7/50
f 72/80/51 64/72/51 65/73/51 70/78/51
f 6/6/9 14/14/9 71/79/9 69/77/9 67/75/9
f 64/72/47 73/81/47 74/82/47 65/73/47
f 65/73/46 74/82/46 75/83/46 66/74/46
f 1/1/48 16/16/48 73/81/48 64/72/48
f 66/74/45 75/83/45 20/20/45 5/5/45
f 16/16/52 21/21/52 76/84/52 73/81/52
f 75/83/53 78/86/53 25/25/53 20/20/53
f 73/81/54 76/84/54 77/85/54 74/82/54
f 74/82/55 77/85/55 78/86/55 75/83/55
f 101/115/56 81/89/56 30/30/56 62/70/56
f 97/111/57 79/87/57 80/88/57 99/113/57
f 99/113/58 80/88/58 81/89/58 101/115/58
f 77/85/59 98/112/59 100/114/59 78/86/59
f 21/21/60 54/62/60 96/110/60 76/84/60
f 78/86/61 100/114/61 63/71/61 25/25/61
f 76/84/62 96/110/62 98/112/62 77/85/62
f 80/88/63 83/92/63 86/96/63 88/98/63 87/97/63 85/94/63 81/89/63
f 79/87/64 82/90/64 83/92/64 80/88/64
f 26/26/65 35/37/65 84/93/65 79/87/65
f 81/89/66 85/94/66 40/43/66 30/30/66
f 85/94/67 87/97/67 42/46/67 40/43/67
f 87/97/68 88/98/68 43/47/68 42/46/68
f 31/31/69 92/102/69 93/104/69 82/90/69
f 84/93/70 91/101/70 90/100/70 89/99/70
f 79/87/71 84/93/71 89/99/71 82/90/71
f 82/90/72 89/99/72 44/48/72 31/31/72
f 46/50/73 47/51/73 90/100/73 91/101/73
f 89/99/74 90/100/74 47/51/74 44/48/74
f 35/37/75 46/50/75 91/101/75 84/93/75
f 88/98/76 86/96/76 41/45/76 43/47/76
f 93/104/35 92/102/35 94/107/35 95/109/35
f 41/44/77 94/106/77 92/103/77 31/32/77
f 82/91/78 93/105/78 95/108/78 86/95/78
f 86/96/79 95/109/79 94/107/79 41/45/79
f 54/62/80 55/63/80 97/111/80 96/110/80
f 96/110/81 97/111/81 99/113/81 98/112/81
f 98/112/82 99/113/82 101/115/82 100/114/82
f 100/114/83 101/115/83 62/70/83 63/71/83
f 55/63/84 26/26/84 79/87/84 97/111/84
