# Blender 3.4.1
# www.blender.org
mtllib King.mtl
o Tower
v 0.000000 0.001851 -0.245024
v 0.000000 0.114449 -0.214442
v 0.173258 0.001851 -0.173258
v 0.151633 0.114449 -0.151633
v 0.245024 0.001851 0.000000
v 0.214442 0.114449 0.000000
v 0.173258 0.001851 0.173258
v 0.151633 0.114449 0.151633
v 0.000000 0.001851 0.245024
v 0.000000 0.114449 0.214442
v -0.173258 0.001851 0.173258
v -0.151633 0.114449 0.151633
v -0.245024 0.001851 0.000000
v -0.214442 0.114449 0.000000
v -0.173258 0.001851 -0.173258
v -0.151633 0.114449 -0.151633
v 0.173258 0.108233 -0.173258
v 0.000000 0.108233 -0.245024
v 0.245024 0.108233 0.000000
v 0.173258 0.108233 0.173258
v 0.000000 0.108233 0.245024
v -0.173258 0.108233 0.173258
v -0.245024 0.108233 0.000000
v -0.173258 0.108233 -0.173258
v 0.120876 0.209228 -0.120876
v 0.000000 0.209228 -0.170944
v 0.170944 0.209228 0.000000
v 0.120876 0.209228 0.120876
v 0.000000 0.209228 0.170944
v -0.120876 0.209228 0.120876
v -0.170944 0.209228 0.000000
v -0.120876 0.209228 -0.120876
v 0.146284 0.199278 -0.146284
v 0.000000 0.199278 -0.206876
v 0.206876 0.199278 0.000000
v 0.146284 0.199278 0.146284
v 0.000000 0.199278 0.206876
v -0.146284 0.199278 0.146284
v -0.206876 0.199278 0.000000
v -0.146284 0.199278 -0.146284
v 0.069972 0.571766 -0.069972
v -0.000000 0.571766 -0.098955
v 0.098955 0.571766 0.000000
v 0.069972 0.571766 0.069972
v -0.000000 0.571766 0.098955
v -0.069972 0.571766 0.069972
v -0.098955 0.571766 0.000000
v -0.069972 0.571766 -0.069972
v 0.100022 0.592170 -0.100022
v -0.000000 0.592170 -0.141452
v 0.141452 0.592170 0.000000
v 0.100022 0.592170 0.100022
v -0.000000 0.592170 0.141452
v -0.100022 0.592170 0.100022
v -0.141452 0.592170 0.000000
v -0.100022 0.592170 -0.100022
v 0.112241 0.679076 -0.112241
v -0.000000 0.679076 -0.158732
v 0.158732 0.679076 0.000000
v 0.112241 0.679076 0.112241
v -0.000000 0.679076 0.158732
v -0.112241 0.679076 0.112241
v -0.158732 0.679076 0.000000
v -0.112241 0.679076 -0.112241
v 0.083869 0.679076 -0.083869
v -0.000000 0.679076 -0.118608
v 0.118608 0.679076 0.000000
v 0.083869 0.679076 0.083869
v -0.000000 0.679076 0.118608
v -0.083869 0.679076 0.083869
v -0.118608 0.679076 0.000000
v -0.083869 0.679076 -0.083869
v 0.101427 0.710296 -0.101427
v 0.143439 0.710296 0.000000
v -0.000000 0.710296 -0.143439
v -0.000000 0.710296 0.143439
v -0.101427 0.710296 0.101427
v -0.143439 0.710296 0.000000
v -0.101427 0.710296 -0.101427
v 0.101427 0.710296 0.101427
v 0.077520 0.735694 -0.077520
v 0.109630 0.735694 0.000000
v -0.000000 0.735694 -0.109630
v -0.000000 0.735694 0.109630
v -0.077520 0.735694 0.077520
v -0.109630 0.735694 0.000000
v -0.077520 0.735694 -0.077520
v 0.077520 0.735694 0.077520
v 0.101427 0.735694 -0.101427
v 0.143439 0.735694 0.000000
v -0.000000 0.735694 -0.143439
v -0.000000 0.735694 0.143439
v -0.101427 0.735694 0.101427
v -0.143439 0.735694 0.000000
v -0.101427 0.735694 -0.101427
v 0.101427 0.735694 0.101427
v 0.110224 0.914300 -0.110224
v 0.155880 0.914300 0.000000
v -0.000000 0.914300 -0.155880
v -0.000000 0.914300 0.155880
v -0.110224 0.914300 0.110224
v -0.155880 0.914300 0.000000
v -0.110224 0.914300 -0.110224
v 0.110224 0.914300 0.110224
v 0.089621 0.972918 -0.089621
v 0.126743 0.972918 0.000000
v -0.000000 0.972918 -0.126743
v -0.000000 0.972918 0.126743
v -0.089621 0.972918 0.089621
v -0.126743 0.972918 0.000000
v -0.089621 0.972918 -0.089621
v 0.089621 0.972918 0.089621
v 0.089621 0.972918 -0.089621
v 0.126743 0.972918 0.000000
v -0.000000 0.972918 -0.126743
v -0.000000 0.972918 0.126743
v -0.089621 0.972918 0.089621
v -0.126743 0.972918 0.000000
v -0.089621 0.972918 -0.089621
v 0.089621 0.972918 0.089621
v 0.029999 0.983149 -0.029999
v 0.030808 0.983149 0.000000
v -0.000000 0.983149 -0.030808
v -0.000000 0.983149 0.030808
v -0.029999 0.983149 0.029999
v -0.030808 0.983149 0.000000
v -0.029999 0.983149 -0.029999
v 0.029999 0.983149 0.029999
v 0.029999 1.175407 -0.029999
v 0.030808 1.175407 0.000000
v -0.000000 1.175407 -0.030808
v -0.000000 1.175407 0.030808
v -0.029999 1.175407 0.029999
v -0.030808 1.175407 0.000000
v -0.029999 1.175407 -0.029999
v 0.029999 1.175407 0.029999
v -0.030808 1.073200 0.000000
v -0.030808 1.124304 0.000000
v -0.029999 1.124304 -0.029999
v -0.029999 1.073200 -0.029999
v -0.000000 1.124304 -0.030808
v -0.000000 1.073200 -0.030808
v -0.000000 1.073200 0.030808
v -0.000000 1.124304 0.030808
v -0.029999 1.124304 0.029999
v -0.029999 1.073200 0.029999
v 0.029999 1.073200 -0.029999
v 0.029999 1.124304 -0.029999
v 0.030808 1.124304 0.000000
v 0.030808 1.073200 0.000000
v 0.029999 1.073200 0.029999
v 0.029999 1.124304 0.029999
v -0.075530 1.073200 0.000000
v -0.075530 1.124304 0.000000
v -0.074705 1.124304 -0.031205
v -0.074705 1.073200 -0.031205
v -0.074705 1.124304 0.031205
v -0.074705 1.073200 0.031205
v 0.074705 1.073200 -0.031205
v 0.074705 1.124304 -0.031205
v 0.075530 1.124304 0.000000
v 0.075530 1.073200 0.000000
v 0.074705 1.073200 0.031205
v 0.074705 1.124304 0.031205
vn -0.0000 -1.0000 -0.0000
vn 0.9087 0.1804 0.3764
vn 0.3764 0.1804 -0.9087
vn -0.3764 0.1804 -0.9087
vn -0.9087 0.1804 0.3764
vn 0.3764 0.1804 0.9087
vn 0.9087 0.1804 -0.3764
vn -0.9087 0.1804 -0.3764
vn -0.3764 0.1804 0.9087
vn 0.3827 -0.0000 -0.9239
vn 0.9239 -0.0000 -0.3827
vn 0.9239 -0.0000 0.3827
vn 0.3827 -0.0000 0.9239
vn -0.3827 -0.0000 0.9239
vn -0.9239 -0.0000 0.3827
vn -0.3814 0.0821 -0.9208
vn -0.9239 -0.0000 -0.3827
vn -0.3827 -0.0000 -0.9239
vn 0.0822 0.9766 -0.1985
vn 0.1985 0.9766 -0.0822
vn 0.1985 0.9766 0.0822
vn 0.0822 0.9766 0.1985
vn -0.0822 0.9766 0.1985
vn -0.1985 0.9766 0.0822
vn -0.1985 0.9766 -0.0822
vn -0.0822 0.9766 -0.1985
vn -0.9208 0.0821 0.3814
vn 0.3814 0.0821 0.9208
vn 0.9208 0.0821 -0.3814
vn -0.9208 0.0821 -0.3814
vn -0.3814 0.0821 0.9208
vn 0.9208 0.0821 0.3814
vn 0.3814 0.0821 -0.9208
vn 0.1099 0.9579 -0.2652
vn 0.2653 0.9579 -0.1099
vn 0.2652 0.9579 0.1099
vn 0.1099 0.9579 0.2653
vn -0.1099 0.9579 0.2652
vn -0.2653 0.9579 0.1099
vn -0.2652 0.9579 -0.1099
vn -0.1099 0.9579 -0.2653
vn -0.4260 -0.8873 -0.1765
vn 0.3764 -0.1807 0.9087
vn -0.1765 -0.8873 0.4260
vn 0.4260 -0.8873 0.1765
vn 0.1765 -0.8873 -0.4260
vn -0.1765 -0.8873 -0.4260
vn -0.4260 -0.8873 0.1765
vn 0.1765 -0.8873 0.4260
vn 0.4260 -0.8873 -0.1765
vn 0.9087 -0.1807 -0.3764
vn -0.9087 -0.1807 -0.3764
vn -0.3764 -0.1807 0.9087
vn 0.9087 -0.1807 0.3764
vn 0.3764 -0.1807 -0.9087
vn -0.3764 -0.1807 -0.9087
vn -0.9087 -0.1807 0.3764
vn 0.1099 0.9579 -0.2653
vn 0.2652 0.9579 -0.1099
vn 0.2653 0.9579 0.1099
vn 0.1099 0.9579 0.2652
vn -0.1099 0.9579 0.2653
vn -0.2652 0.9579 0.1099
vn -0.2653 0.9579 -0.1099
vn -0.1099 0.9579 -0.2652
vn -0.0000 1.0000 -0.0000
vn 0.3084 -0.5921 -0.7445
vn -0.7445 -0.5921 -0.3084
vn -0.3084 -0.5921 -0.7445
vn -0.3084 -0.5921 0.7445
vn 0.7445 -0.5921 -0.3084
vn 0.3084 -0.5921 0.7445
vn 0.7445 -0.5921 0.3084
vn -0.7445 -0.5921 0.3084
vn 0.8985 -0.2327 0.3722
vn 0.8396 0.4173 -0.3478
vn -0.8985 -0.2327 0.3722
vn 0.3722 -0.2327 -0.8985
vn -0.8985 -0.2327 -0.3722
vn -0.3722 -0.2327 -0.8985
vn -0.3722 -0.2327 0.8985
vn 0.8985 -0.2327 -0.3722
vn 0.3722 -0.2327 0.8985
vn 0.3478 0.4173 0.8396
vn 0.8396 0.4173 0.3478
vn -0.8396 0.4173 0.3478
vn 0.3478 0.4173 -0.8396
vn -0.8396 0.4173 -0.3478
vn -0.3478 0.4173 -0.8396
vn -0.3478 0.4173 0.8396
vn -0.0000 -0.0000 1.0000
vn 0.1164 0.9925 -0.0369
vn 0.0369 0.9925 0.1164
vn 0.1164 0.9925 0.0369
vn -0.1164 0.9925 0.0369
vn 0.0369 0.9925 -0.1164
vn -0.1164 0.9925 -0.0369
vn -0.0369 0.9925 -0.1164
vn -0.0369 0.9925 0.1164
vn -0.9996 -0.0000 -0.0270
vn -0.0270 -0.0000 -0.9996
vn -0.0270 -0.0000 0.9996
vn 0.9996 -0.0000 -0.0270
vn 0.0270 -0.0000 0.9996
vn 0.9996 -0.0000 0.0270
vn -0.9996 -0.0000 0.0270
vn 0.0270 -0.0000 -0.9996
vn -0.9997 -0.0000 0.0264
vn 0.9997 -0.0000 0.0264
vn 0.9997 -0.0000 -0.0264
vn -0.9997 -0.0000 -0.0264
vt 0.750000 0.490000
vt 1.000000 0.500000
vt 0.000000 0.500000
vt 0.250000 0.421553
vt 0.919706 0.419706
vt 0.875000 0.500000
vt 0.371307 0.371307
vt 0.990000 0.250000
vt 0.750000 0.500000
vt 0.421553 0.250000
vt 0.919706 0.080294
vt 0.625000 0.500000
vt 0.371307 0.128693
vt 0.750000 0.010000
vt 0.500000 0.500000
vt 0.250000 0.078447
vt 0.580294 0.080294
vt 0.375000 0.500000
vt 0.128693 0.128693
vt 0.510000 0.250000
vt 0.250000 0.500000
vt 0.078447 0.250000
vt 0.580294 0.419706
vt 0.125000 0.500000
vt 0.128693 0.371307
vt 0.875000 1.000000
vt 0.419706 0.419706
vt 1.000000 1.000000
vt 0.000000 1.000000
vt 0.250000 0.490000
vt 0.750000 1.000000
vt 0.490000 0.250000
vt 0.625000 1.000000
vt 0.419706 0.080294
vt 0.500000 1.000000
vt 0.250000 0.010000
vt 0.375000 1.000000
vt 0.080294 0.080294
vt 0.250000 1.000000
vt 0.010000 0.250000
vt 0.125000 1.000000
vt 0.080294 0.419706
vt 0.350237 0.350237
vt 0.250000 0.391757
vt 0.391756 0.250000
vt 0.350237 0.149763
vt 0.250000 0.108244
vt 0.149763 0.149763
vt 0.108244 0.250000
vt 0.149763 0.350237
vt 0.371307 0.371307
vt 0.250000 0.421553
vt 0.421553 0.250000
vt 0.371307 0.128693
vt 0.250000 0.078447
vt 0.128693 0.128693
vt 0.078447 0.250000
vt 0.128693 0.371307
vt 0.350237 0.350237
vt 0.250000 0.391757
vt 0.391756 0.250000
vt 0.350237 0.149763
vt 0.250000 0.108244
vt 0.149763 0.149763
vt 0.108244 0.250000
vt 0.149763 0.350237
vt 0.350237 0.350237
vt 0.250000 0.391757
vt 0.391756 0.250000
vt 0.350237 0.149763
vt 0.250000 0.108244
vt 0.149763 0.149763
vt 0.108244 0.250000
vt 0.149763 0.350237
vt 0.350237 0.350237
vt 0.250000 0.391757
vt 0.391756 0.250000
vt 0.350237 0.149763
vt 0.250000 0.108244
vt 0.149763 0.149763
vt 0.108244 0.250000
vt 0.149763 0.350237
vt 0.350237 0.350237
vt 0.250000 0.391757
vt 0.391756 0.250000
vt 0.350237 0.149763
vt 0.250000 0.108244
vt 0.149763 0.149763
vt 0.108244 0.250000
vt 0.149763 0.350237
vt 0.350237 0.350237
vt 0.391756 0.250000
vt 0.250000 0.391757
vt 0.250000 0.108244
vt 0.149763 0.149763
vt 0.108244 0.250000
vt 0.149763 0.350237
vt 0.350237 0.149763
vt 0.326611 0.326611
vt 0.358344 0.250000
vt 0.250000 0.358345
vt 0.250000 0.141656
vt 0.173389 0.173389
vt 0.141656 0.250000
vt 0.173389 0.326611
vt 0.326611 0.173389
vt 0.350237 0.350237
vt 0.391756 0.250000
vt 0.250000 0.391757
vt 0.250000 0.108244
vt 0.149763 0.149763
vt 0.108244 0.250000
vt 0.149763 0.350237
vt 0.350237 0.149763
vt 0.326611 0.326611
vt 0.358344 0.250000
vt 0.250000 0.358345
vt 0.250000 0.141656
vt 0.173389 0.173389
vt 0.141656 0.250000
vt 0.173389 0.326611
vt 0.326611 0.173389
vt 0.326611 0.326611
vt 0.358344 0.250000
vt 0.250000 0.358345
vt 0.250000 0.141656
vt 0.173389 0.173389
vt 0.141656 0.250000
vt 0.173389 0.326611
vt 0.326611 0.173389
vt 0.326611 0.326611
vt 0.358344 0.250000
vt 0.250000 0.358345
vt 0.250000 0.141656
vt 0.173389 0.173389
vt 0.141656 0.250000
vt 0.173389 0.326611
vt 0.326611 0.173389
vt 0.326611 0.326611
vt 0.358344 0.250000
vt 0.250000 0.358345
vt 0.250000 0.141656
vt 0.173389 0.173389
vt 0.141656 0.250000
vt 0.173389 0.326611
vt 0.326611 0.173389
vt 0.326611 0.326611
vt 0.358344 0.250000
vt 0.250000 0.358345
vt 0.250000 0.141656
vt 0.173389 0.173389
vt 0.141656 0.250000
vt 0.173389 0.326611
vt 0.326611 0.173389
vt 0.141656 0.250000
vt 0.141656 0.250000
vt 0.173389 0.326611
vt 0.173389 0.326611
vt 0.250000 0.358345
vt 0.250000 0.358345
vt 0.250000 0.141656
vt 0.250000 0.141656
vt 0.173389 0.173389
vt 0.173389 0.173389
vt 0.326611 0.326611
vt 0.326611 0.326611
vt 0.358344 0.250000
vt 0.358344 0.250000
vt 0.326611 0.173389
vt 0.326611 0.173389
vt 0.141656 0.250000
vt 0.141656 0.250000
vt 0.173389 0.326611
vt 0.173389 0.326611
vt 0.173389 0.173389
vt 0.173389 0.173389
vt 0.326611 0.326611
vt 0.326611 0.326611
vt 0.358344 0.250000
vt 0.358344 0.250000
vt 0.326611 0.173389
vt 0.326611 0.173389
s 0
usemtl Body
f 7/11/1 11/17/1 15/23/1
f 27/45/2 44/62/2 28/46/2
f 26/44/3 41/59/3 25/43/3
f 32/50/4 42/60/4 26/44/4
f 30/48/5 47/65/5 31/49/5
f 28/46/6 45/63/6 29/47/6
f 25/43/7 43/61/7 27/45/7
f 31/49/8 48/66/8 32/50/8
f 29/47/9 46/64/9 30/48/9
f 15/23/1 1/1/1 3/5/1
f 3/5/1 5/8/1 7/11/1
f 7/11/1 9/14/1 11/17/1
f 11/17/1 13/20/1 15/23/1
f 15/23/1 3/5/1 7/11/1
f 27/45/2 43/61/2 44/62/2
f 26/44/3 42/60/3 41/59/3
f 32/50/4 48/66/4 42/60/4
f 30/48/5 46/64/5 47/65/5
f 28/46/6 44/62/6 45/63/6
f 25/43/7 41/59/7 43/61/7
f 31/49/8 47/65/8 48/66/8
f 29/47/9 45/63/9 46/64/9
f 18/28/10 3/6/10 1/2/10
f 17/26/11 5/9/11 3/6/11
f 19/31/12 7/12/12 5/9/12
f 20/33/13 9/15/13 7/12/13
f 21/35/14 11/18/14 9/15/14
f 22/37/15 13/21/15 11/18/15
f 2/4/16 40/58/16 34/52/16
f 23/39/17 15/24/17 13/21/17
f 24/41/18 1/3/18 15/24/18
f 2/4/19 17/27/19 18/30/19
f 6/10/20 17/27/20 4/7/20
f 6/10/21 20/34/21 19/32/21
f 10/16/22 20/34/22 8/13/22
f 10/16/23 22/38/23 21/36/23
f 14/22/24 22/38/24 12/19/24
f 14/22/25 24/42/25 23/40/25
f 2/4/26 24/42/26 16/25/26
f 14/22/27 38/56/27 39/57/27
f 10/16/28 36/54/28 37/55/28
f 6/10/29 33/51/29 35/53/29
f 14/22/30 40/58/30 16/25/30
f 10/16/31 38/56/31 12/19/31
f 6/10/32 36/54/32 8/13/32
f 2/4/33 33/51/33 4/7/33
f 26/44/34 33/51/34 34/52/34
f 27/45/35 33/51/35 25/43/35
f 27/45/36 36/54/36 35/53/36
f 29/47/37 36/54/37 28/46/37
f 29/47/38 38/56/38 37/55/38
f 31/49/39 38/56/39 30/48/39
f 31/49/40 40/58/40 39/57/40
f 26/44/41 40/58/41 32/50/41
f 47/65/42 56/74/42 48/66/42
f 52/70/43 61/79/43 53/71/43
f 45/63/44 54/72/44 46/64/44
f 43/61/45 52/70/45 44/62/45
f 42/60/46 49/67/46 41/59/46
f 48/66/47 50/68/47 42/60/47
f 46/64/48 55/73/48 47/65/48
f 44/62/49 53/71/49 45/63/49
f 41/59/50 51/69/50 43/61/50
f 49/67/51 59/77/51 51/69/51
f 55/73/52 64/82/52 56/74/52
f 53/71/53 62/80/53 54/72/53
f 51/69/54 60/78/54 52/70/54
f 50/68/55 57/75/55 49/67/55
f 56/74/56 58/76/56 50/68/56
f 54/72/57 63/81/57 55/73/57
f 18/28/10 17/26/10 3/6/10
f 17/26/11 19/31/11 5/9/11
f 19/31/12 20/33/12 7/12/12
f 20/33/13 21/35/13 9/15/13
f 21/35/14 22/37/14 11/18/14
f 22/37/15 23/39/15 13/21/15
f 2/4/16 16/25/16 40/58/16
f 23/39/17 24/41/17 15/24/17
f 24/41/18 18/29/18 1/3/18
f 2/4/19 4/7/19 17/27/19
f 6/10/20 19/32/20 17/27/20
f 6/10/21 8/13/21 20/34/21
f 10/16/22 21/36/22 20/34/22
f 10/16/23 12/19/23 22/38/23
f 14/22/24 23/40/24 22/38/24
f 14/22/25 16/25/25 24/42/25
f 2/4/26 18/30/26 24/42/26
f 14/22/27 12/19/27 38/56/27
f 10/16/28 8/13/28 36/54/28
f 6/10/29 4/7/29 33/51/29
f 14/22/30 39/57/30 40/58/30
f 10/16/31 37/55/31 38/56/31
f 6/10/32 35/53/32 36/54/32
f 2/4/33 34/52/33 33/51/33
f 26/44/58 25/43/58 33/51/58
f 27/45/59 35/53/59 33/51/59
f 27/45/60 28/46/60 36/54/60
f 29/47/61 37/55/61 36/54/61
f 29/47/62 30/48/62 38/56/62
f 31/49/63 39/57/63 38/56/63
f 31/49/64 32/50/64 40/58/64
f 26/44/65 34/52/65 40/58/65
f 47/65/42 55/73/42 56/74/42
f 52/70/43 60/78/43 61/79/43
f 45/63/44 53/71/44 54/72/44
f 43/61/45 51/69/45 52/70/45
f 42/60/46 50/68/46 49/67/46
f 48/66/47 56/74/47 50/68/47
f 46/64/48 54/72/48 55/73/48
f 44/62/49 52/70/49 53/71/49
f 41/59/50 49/67/50 51/69/50
f 49/67/51 57/75/51 59/77/51
f 55/73/52 63/81/52 64/82/52
f 53/71/53 61/79/53 62/80/53
f 51/69/54 59/77/54 60/78/54
f 50/68/55 58/76/55 57/75/55
f 56/74/56 64/82/56 58/76/56
f 54/72/57 62/80/57 63/81/57
f 63/81/66 62/80/66 70/88/66 71/89/66
f 61/79/66 60/78/66 68/86/66 69/87/66
f 60/78/66 59/77/66 67/85/66 68/86/66
f 57/75/66 58/76/66 66/84/66 65/83/66
f 58/76/66 64/82/66 72/90/66 66/84/66
f 62/80/66 61/79/66 69/87/66 70/88/66
f 64/82/66 63/81/66 71/89/66 72/90/66
f 59/77/66 57/75/66 65/83/66 67/85/66
f 65/83/67 66/84/67 75/93/67 73/91/67
f 76/94/13 80/98/13 96/114/13 92/110/13
f 72/90/68 71/89/68 78/96/68 79/97/68
f 66/84/69 72/90/69 79/97/69 75/93/69
f 70/88/70 69/87/70 76/94/70 77/95/70
f 67/85/71 65/83/71 73/91/71 74/92/71
f 69/87/72 68/86/72 80/98/72 76/94/72
f 68/86/73 67/85/73 74/92/73 80/98/73
f 71/89/74 70/88/74 77/95/74 78/96/74
f 88/106/75 82/100/75 98/116/75 104/122/75
f 80/98/12 74/92/12 90/108/12 96/114/12
f 78/96/15 77/95/15 93/111/15 94/112/15
f 73/91/10 75/93/10 91/109/10 89/107/10
f 79/97/17 78/96/17 94/112/17 95/113/17
f 75/93/18 79/97/18 95/113/18 91/109/18
f 77/95/14 76/94/14 92/110/14 93/111/14
f 74/92/11 73/91/11 89/107/11 90/108/11
f 81/99/66 82/100/66 90/108/66 89/107/66
f 83/101/66 81/99/66 89/107/66 91/109/66
f 84/102/66 85/103/66 93/111/66 92/110/66
f 85/103/66 86/104/66 94/112/66 93/111/66
f 87/105/66 83/101/66 91/109/66 95/113/66
f 82/100/66 88/106/66 96/114/66 90/108/66
f 86/104/66 87/105/66 95/113/66 94/112/66
f 88/106/66 84/102/66 92/110/66 96/114/66
f 98/116/76 97/115/76 105/123/76 106/124/76
f 86/104/77 85/103/77 101/119/77 102/120/77
f 81/99/78 83/101/78 99/117/78 97/115/78
f 87/105/79 86/104/79 102/120/79 103/121/79
f 83/101/80 87/105/80 103/121/80 99/117/80
f 85/103/81 84/102/81 100/118/81 101/119/81
f 82/100/82 81/99/82 97/115/82 98/116/82
f 84/102/83 88/106/83 104/122/83 100/118/83
f 100/118/84 104/122/84 112/130/84 108/126/84
f 104/122/85 98/116/85 106/124/85 112/130/85
f 102/120/86 101/119/86 109/127/86 110/128/86
f 97/115/87 99/117/87 107/125/87 105/123/87
f 103/121/88 102/120/88 110/128/88 111/129/88
f 99/117/89 103/121/89 111/129/89 107/125/89
f 101/119/90 100/118/90 108/126/90 109/127/90
f 108/126/91 112/130/91 120/138/91 116/134/91
f 112/130/91 106/124/91 114/132/91 120/138/91
f 110/128/91 109/127/91 117/135/91 118/136/91
f 105/123/91 107/125/91 115/133/91 113/131/91
f 111/129/91 110/128/91 118/136/91 119/137/91
f 107/125/91 111/129/91 119/137/91 115/133/91
f 109/127/91 108/126/91 116/134/91 117/135/91
f 106/124/91 105/123/91 113/131/91 114/132/91
f 114/132/92 113/131/92 121/139/92 122/140/92
f 116/134/93 120/138/93 128/146/93 124/142/93
f 120/138/94 114/132/94 122/140/94 128/146/94
f 118/136/95 117/135/95 125/143/95 126/144/95
f 113/131/96 115/133/96 123/141/96 121/139/96
f 119/137/97 118/136/97 126/144/97 127/145/97
f 115/133/98 119/137/98 127/145/98 123/141/98
f 117/135/99 116/134/99 124/142/99 125/143/99
f 139/157/100 138/156/100 134/152/100 135/153/100
f 129/147/66 131/149/66 135/153/66 134/152/66 133/151/66 132/150/66 136/154/66 130/148/66
f 141/159/101 139/157/101 135/153/101 131/149/101
f 145/163/102 144/162/102 132/150/102 133/151/102
f 149/167/103 148/166/103 129/147/103 130/148/103
f 144/162/104 152/170/104 136/154/104 132/150/104
f 152/170/105 149/167/105 130/148/105 136/154/105
f 138/156/106 145/163/106 133/151/106 134/152/106
f 148/166/107 141/159/107 131/149/107 129/147/107
f 121/139/107 123/141/107 142/160/107 147/165/107
f 147/165/107 142/160/107 141/159/107 148/166/107
f 126/144/106 125/143/106 146/164/106 137/155/106
f 145/163/66 138/156/66 154/172/66 157/175/66
f 128/146/105 122/140/105 150/168/105 151/169/105
f 152/170/102 151/169/102 163/181/102 164/182/102
f 124/142/104 128/146/104 151/169/104 143/161/104
f 143/161/104 151/169/104 152/170/104 144/162/104
f 122/140/103 121/139/103 147/165/103 150/168/103
f 148/166/66 149/167/66 161/179/66 160/178/66
f 125/143/102 124/142/102 143/161/102 146/164/102
f 146/164/102 143/161/102 144/162/102 145/163/102
f 123/141/101 127/145/101 140/158/101 142/160/101
f 142/160/101 140/158/101 139/157/101 141/159/101
f 127/145/100 126/144/100 137/155/100 140/158/100
f 137/155/1 146/164/1 158/176/1 153/171/1
f 153/171/108 158/176/108 157/175/108 154/172/108
f 163/181/109 162/180/109 161/179/109 164/182/109
f 162/180/110 159/177/110 160/178/110 161/179/110
f 156/174/111 153/171/111 154/172/111 155/173/111
f 146/164/104 145/163/104 157/175/104 158/176/104
f 140/158/1 137/155/1 153/171/1 156/174/1
f 139/157/107 140/158/107 156/174/107 155/173/107
f 151/169/1 150/168/1 162/180/1 163/181/1
f 150/168/1 147/165/1 159/177/1 162/180/1
f 138/156/66 139/157/66 155/173/66 154/172/66
f 149/167/66 152/170/66 164/182/66 161/179/66
f 147/165/101 148/166/101 160/178/101 159/177/101
